<svg xmlns="http://www.w3.org/2000/svg" viewBox="0 0 28 28"><defs><style>.cls-1{fill:none;}.cls-2{fill:#e2e5ee;}.cls-3{fill:#172d72;}.cls-4{fill:#5b62e8;}</style></defs><g id="图层_2" data-name="图层 2"><g id="icon"><rect class="cls-1" width="28" height="28"/><path class="cls-2" d="M12,17a4,4,0,0,1,8,0"/><circle class="cls-2" cx="16" cy="11" r="2"/><circle class="cls-3" cx="12" cy="11" r="2"/><path class="cls-3" d="M8,17a4,4,0,0,1,8,0"/><path class="cls-4" d="M14,13.55A4,4,0,0,0,12,17h4A4,4,0,0,0,14,13.55Z"/><rect class="cls-3" x="18" y="6" width="6" height="2"/><rect class="cls-3" x="18" y="6" width="6" height="2" transform="translate(28 -14) rotate(90)"/><rect class="cls-3" x="4" y="20" width="6" height="2"/><rect class="cls-3" x="4" y="20" width="6" height="2" transform="translate(28 14) rotate(90)"/><path class="cls-4" d="M14,6V4A10,10,0,0,0,4,14H6A8,8,0,0,1,14,6Z"/><path class="cls-4" d="M14,22v2A10,10,0,0,0,24,14H22A8,8,0,0,1,14,22Z"/></g></g></svg>